<?xml version="1.0" encoding="utf-8"?>
<?xml-stylesheet type="text/xsl" href="rss1.xsl"?>
<rss version="2.0" xmlns:atom="http://www.w3.org/2005/Atom" xmlns:content="http://purl.org/rss/1.0/modules/content/" xmlns:dc="http://purl.org/dc/elements/1.1/" xmlns:media="http://search.yahoo.com/mrss/">
<channel>
 <title>Getty</title>
 <link>http://www.gettyimg.com/</link>
 <atom:link href="http://www.gettyimg.com/" rel="self" type="application/rss+xml" />

 
                <item>
                <title><![CDATA[【Requests】[REQ VID] - Anitta - Mil Veces]]></title>
                <link><![CDATA[https://sharemania.us/threads/anitta-mil-veces.230948/]]></link>
                <description><![CDATA[<article>
<blockquote class="messageText SelectQuoteContainer ugc baseHtml">
can someone please upload the music video of anitta mil veces from tidal or apple music? thanks in advance<img src="styles/default/xenforo/smilies/red_heart-48.png" class="mceSmilie" alt=":love:" title="hearts    :love:">
<div class="messageTextEndMarker">&nbsp;</div>
</blockquote>
</article>]]></description>
                <author><![CDATA[shady aymen]]></author>
                </item>

                
                <item>
                <title><![CDATA[【PRORES HD】delete]]></title>
                <link><![CDATA[https://sharemania.us/threads/delete.230946/]]></link>
                <description><![CDATA[<article>
<blockquote class="messageText SelectQuoteContainer ugc baseHtml">
<div style="text-align: center">delete.​</div>
<div class="messageTextEndMarker">&nbsp;</div>
</blockquote>
</article>]]></description>
                <author><![CDATA[fstambuk]]></author>
                </item>

                
                <item>
                <title><![CDATA[【MASTER &amp; MASTER RIP】MASTER - Leigh-Anne - My Love Feat. Ayra Starr (MASTER 4K)]]></title>
                <link><![CDATA[https://sharemania.us/threads/leigh-anne-my-love-feat-ayra-starr-master-4k.230947/]]></link>
                <description><![CDATA[<article>
<blockquote class="messageText SelectQuoteContainer ugc baseHtml">
<div style="text-align: center"><img src="https://i.imgur.com/TNq70XK.gif" class="bbCodeImage LbImage" alt="[​IMG]" data-url="https://i.imgur.com/TNq70XK.gif" style=""><br>
​</div>
<div class="ToggleTriggerAnchor bbCodeSpoilerContainer">
<button type="button" class="button bbCodeSpoilerButton ToggleTrigger Tooltip JsOnly" data-target="> .SpoilerTarget"><span>Spoiler: <span class="SpoilerTitle">MASTER</span></span></button>
<div class="SpoilerTarget bbCodeSpoilerText">
<div class="bbCodeBlock bbCodeCode">
<div class="type">Code:</div>
<pre>Format                                   : MPEG-4
Format profile                           : QuickTime
Codec ID                                 : qt   0000.00 (qt  )
File size                                : 2.34 GiB
Duration                                 : 3 min 54 s
Overall bit rate                         : 85.5 Mb/s
Movie name                               : MY LOVE DC CONFORM 3x2 FINAL
Description                              : This video is about MY LOVE DC CONFORM 3x2 FINAL
Encoded date                             : UTC 2023-10-06 09:47:38
Tagged date                              : UTC 2023-10-06 09:56:38
Writing library                          : Apple QuickTime
com.apple.quicktime.keywords             : MEJI SYNC,03. SFX,00. CUTS,02. MUSIC,01 PERFORMANCE,01. CUTAWAYS,01. CUTAWAYS PERFORMANCE,SYNC TIMELINES,film master,08. block night lap solo beauty,from post,big rooftop performance,matts sfx,07. jungle cutaways,matt_sfx,rooftop chairs,shlings,lp_my love_jray mix_stems,comps,solo dance,39 - swish hits,05. streets,block party performance,splashes,city drone,08. block party,block part day performance,small rooftop performance,exhale,forest dance end,street dance,block party silver outfit,my-love-stems_2023-07-29_1139,comedy sounds,latest,streets - yellow buses,motorbike no jacket performance,tools of the trade 6,07 - drones,dc_indi_clips,07. ayra starr,various whooshes,whips + whooshes,water performance,02. rooftop,titles,clap,audiomachine,motorbike jacket performance,01. water,rooftop
com.apple.quicktime.author               : Matt Newman
com.apple.quicktime.title                : MY LOVE DC CONFORM 3x2 FINAL

Video
ID                                       : 2
Format                                   : AVC
Format/Info                              : Advanced Video Codec
Format profile                           : High@L6
Format settings                          : CABAC / 2 Ref Frames
Format settings, CABAC                   : Yes
Format settings, Reference frames        : 2 frames
Codec ID                                 : avc1
Codec ID/Info                            : Advanced Video Coding
Duration                                 : 3 min 54 s
Bit rate                                 : 85.1 Mb/s
Width                                    : 4 448 pixels
Height                                   : 3 096 pixels
Display aspect ratio                     : 1.437
Frame rate mode                          : Constant
Frame rate                               : 25.000 FPS
Color space                              : YUV
Chroma subsampling                       : 4:2:0
Bit depth                                : 8 bits
Scan type                                : Progressive
Bits/(Pixel*Frame)                       : 0.247
Stream size                              : 2.33 GiB (100%)
Title                                    : Core Media Video
Encoded date                             : UTC 2023-10-06 09:47:38
Tagged date                              : UTC 2023-10-06 09:56:38
Color range                              : Limited
Color primaries                          : BT.709
Transfer characteristics                 : BT.709
Matrix coefficients                      : BT.709
Codec configuration box                  : avcC

Audio
ID                                       : 1
Format                                   : AAC LC
Format/Info                              : Advanced Audio Codec Low Complexity
Codec ID                                 : mp4a-40-2
Duration                                 : 3 min 54 s
Source duration                          : 3 min 54 s
Bit rate mode                            : Constant
Bit rate                                 : 128 kb/s
Channel(s)                               : 2 channels
Channel layout                           : L R
Sampling rate                            : 48.0 kHz
Frame rate                               : 46.875 FPS (1024 SPF)
Compression mode                         : Lossy
Stream size                              : 3.51 MiB (0%)
Source stream size                       : 3.51 MiB (0%)
Title                                    : Core Media Audio
Encoded date                             : UTC 2023-10-06 09:47:38
Tagged date                              : UTC 2023-10-06 09:56:38

Other
ID                                       : 3
Type                                     : Time code
Format                                   : QuickTime TC
Duration                                 : 3 min 54 s
Frame rate                               : 25.000 FPS
Time code of first frame                 : 10:00:00:00
Time code, striped                       : Yes
Title                                    : Core Media Time Code
Encoded date                             : UTC 2023-10-06 09:47:38
Tagged date                              : UTC 2023-10-06 09:56:38</pre>
</div><div style="text-align: center">​</div></div>
</div><div style="text-align: center"><br>
<div class="bbCodeBlock bbCodeVfcHH HiddenContent">
<div class="attribution type">Hidden Content:</div>
<blockquote>You must reply before you can see the hidden data contained here.</blockquote>
</div></div>
<div class="messageTextEndMarker">&nbsp;</div>
</blockquote>
</article>]]></description>
                <author><![CDATA[fstambuk]]></author>
                </item>

                </channel></rss>